<svg width="40" height="40" viewBox="0 0 40 40" fill="none" xmlns="http://www.w3.org/2000/svg">
<path fill-rule="evenodd" clip-rule="evenodd" d="M26.66 5.053C23.4368 3.61683 19.8357 3.26104 16.3938 4.0387C12.9518 4.81636 9.85349 6.6858 7.56082 9.36821C5.26816 12.0506 3.90401 15.4023 3.67184 18.9233C3.43966 22.4444 4.35189 25.9461 6.27248 28.9064C8.19307 31.8666 11.0191 34.1267 14.3291 35.3496C17.6392 36.5725 21.2558 36.6926 24.6397 35.6921C28.0236 34.6916 30.9934 32.624 33.1062 29.7978C35.219 26.9716 36.3616 23.5381 36.3636 20.0094V18.3377C36.3636 17.3335 37.1777 16.5195 38.1818 16.5195C39.186 16.5195 40 17.3335 40 18.3377V20.0104C39.9975 24.3232 38.601 28.5208 36.0187 31.9751C33.4363 35.4294 29.8066 37.9564 25.6707 39.1792C21.5349 40.4021 17.1145 40.2552 13.0689 38.7606C9.02336 37.266 5.56931 34.5036 3.22192 30.8856C0.874532 27.2675 -0.240418 22.9876 0.0433536 18.6841C0.327125 14.3806 1.99441 10.2841 4.79656 7.00559C7.5987 3.72709 11.3856 1.44221 15.5924 0.49174C19.7992 -0.458733 24.2005 -0.0238786 28.14 1.73145C29.0572 2.14014 29.4695 3.215 29.0608 4.13223C28.6521 5.04945 27.5772 5.46169 26.66 5.053Z" fill="#00B3A6"/>
<path fill-rule="evenodd" clip-rule="evenodd" d="M39.4668 4.17866C40.1772 4.88835 40.1778 6.03956 39.4681 6.74996L21.2863 24.95C20.9454 25.2912 20.4828 25.483 20.0005 25.4831C19.5181 25.4832 19.0554 25.2917 18.7144 24.9506L13.2598 19.4961C12.5498 18.786 12.5498 17.6348 13.2598 16.9248C13.9699 16.2147 15.1211 16.2147 15.8311 16.9248L19.9994 21.093L36.8955 4.17995C37.6052 3.46955 38.7564 3.46897 39.4668 4.17866Z" fill="#00B3A6"/>
</svg>
